<svg width="969" height="456" viewBox="0 0 969 456" fill="none" xmlns="http://www.w3.org/2000/svg">
<g clip-path="url(#clip0_134_6188)">
<rect width="969" height="456" fill="white"/>
<rect x="-40" y="-23" width="1041" height="490" fill="url(#paint0_linear_134_6188)"/>
<path d="M75.77 411.98H879.21" stroke="#E0E0E0" stroke-linecap="round" stroke-linejoin="round"/>
<path d="M204.34 432.41H750.65" stroke="#E0E0E0" stroke-linecap="round" stroke-linejoin="round"/>
<path d="M783.36 338.87H734.75V360.83H783.36V338.87Z" fill="#EAEEFB"/>
<path d="M722.17 64.84H673.56V86.8H722.17V64.84Z" fill="#EAEEFB"/>
<path d="M754.02 370.91H705.41V392.87H754.02V370.91Z" fill="#EAEEFB"/>
<path d="M190.07 71.81H141.46V93.77H190.07V71.81Z" fill="#EAEEFB"/>
<path d="M219.41 103.85H170.8V125.81H219.41V103.85Z" fill="#EAEEFB"/>
<path d="M848.89 134.01H659.14C639.677 134.01 623.9 149.788 623.9 169.25C623.9 188.713 639.677 204.49 659.14 204.49H848.89C868.353 204.49 884.13 188.713 884.13 169.25C884.13 149.788 868.353 134.01 848.89 134.01Z" fill="#EAEEFB"/>
<path d="M659.14 191.49C646.88 191.49 636.9 181.51 636.9 169.25C636.9 156.99 646.88 147.01 659.14 147.01H848.89C861.15 147.01 871.13 156.99 871.13 169.25C871.13 181.51 861.15 191.49 848.89 191.49H659.14Z" fill="white"/>
<path d="M672.09 157.26L675 163.16L681.51 164.11C683.66 164.42 684.52 167.06 682.96 168.58L678.25 173.17L679.36 179.65C679.73 181.79 677.48 183.42 675.56 182.41L669.74 179.35L663.92 182.41C662 183.42 659.75 181.79 660.12 179.65L661.23 173.17L656.52 168.58C654.97 167.06 655.82 164.42 657.97 164.11L664.48 163.16L667.39 157.26C668.35 155.31 671.13 155.31 672.09 157.26Z" fill="#FFC004"/>
<path d="M714.23 157.26L717.14 163.16L723.65 164.11C725.8 164.42 726.66 167.06 725.1 168.58L720.39 173.17L721.5 179.65C721.87 181.79 719.62 183.42 717.7 182.41L711.88 179.35L706.06 182.41C704.14 183.42 701.89 181.79 702.26 179.65L703.37 173.17L698.66 168.58C697.11 167.06 697.96 164.42 700.11 164.11L706.62 163.16L709.53 157.26C710.49 155.31 713.27 155.31 714.23 157.26Z" fill="#FFC004"/>
<path d="M756.36 157.26L759.27 163.16L765.78 164.11C767.93 164.42 768.79 167.06 767.23 168.58L762.52 173.17L763.63 179.65C764 181.79 761.75 183.42 759.83 182.41L754.01 179.35L748.19 182.41C746.27 183.42 744.02 181.79 744.39 179.65L745.5 173.17L740.79 168.58C739.24 167.06 740.09 164.42 742.24 164.11L748.75 163.16L751.66 157.26C752.62 155.31 755.4 155.31 756.36 157.26Z" fill="#FFC004"/>
<path d="M798.5 157.26L801.41 163.16L807.92 164.11C810.07 164.42 810.93 167.06 809.37 168.58L804.66 173.17L805.77 179.65C806.14 181.79 803.89 183.42 801.97 182.41L796.15 179.35L790.33 182.41C788.41 183.42 786.16 181.79 786.53 179.65L787.64 173.17L782.93 168.58C781.38 167.06 782.23 164.42 784.38 164.11L790.89 163.16L793.8 157.26C794.76 155.31 797.54 155.31 798.5 157.26Z" fill="#FFC004"/>
<path d="M840.64 157.26L843.55 163.16L850.06 164.11C852.21 164.42 853.07 167.06 851.51 168.58L846.8 173.17L847.91 179.65C848.28 181.79 846.03 183.42 844.11 182.41L838.29 179.35L832.47 182.41C830.55 183.42 828.3 181.79 828.67 179.65L829.78 173.17L825.07 168.58C823.52 167.06 824.37 164.42 826.52 164.11L833.03 163.16L835.94 157.26C836.9 155.31 839.68 155.31 840.64 157.26Z" fill="#FFC004"/>
<path d="M885.79 228.82H696.04C676.577 228.82 660.8 244.597 660.8 264.06C660.8 283.523 676.577 299.3 696.04 299.3H885.79C905.252 299.3 921.03 283.523 921.03 264.06C921.03 244.597 905.252 228.82 885.79 228.82Z" fill="#EAEEFB"/>
<path d="M696.04 286.3C683.78 286.3 673.8 276.32 673.8 264.06C673.8 251.8 683.78 241.82 696.04 241.82H885.79C898.05 241.82 908.03 251.8 908.03 264.06C908.03 276.32 898.05 286.3 885.79 286.3H696.04Z" fill="white"/>
<path d="M708.99 252.07L711.9 257.97L718.41 258.92C720.56 259.23 721.42 261.87 719.86 263.39L715.15 267.98L716.26 274.46C716.63 276.6 714.38 278.23 712.46 277.22L706.64 274.16L700.82 277.22C698.9 278.23 696.65 276.6 697.02 274.46L698.13 267.98L693.42 263.39C691.87 261.87 692.72 259.23 694.87 258.92L701.38 257.97L704.29 252.07C705.25 250.12 708.03 250.12 708.99 252.07Z" fill="#FFC004"/>
<path d="M751.12 252.07L754.03 257.97L760.54 258.92C762.69 259.23 763.55 261.87 761.99 263.39L757.28 267.98L758.39 274.46C758.76 276.6 756.51 278.23 754.59 277.22L748.77 274.16L742.95 277.22C741.03 278.23 738.78 276.6 739.15 274.46L740.26 267.98L735.55 263.39C734 261.87 734.85 259.23 737 258.92L743.51 257.97L746.42 252.07C747.38 250.12 750.16 250.12 751.12 252.07Z" fill="#FFC004"/>
<path d="M793.26 252.07L796.17 257.97L802.68 258.92C804.83 259.23 805.69 261.87 804.13 263.39L799.42 267.98L800.53 274.46C800.9 276.6 798.65 278.23 796.73 277.22L790.91 274.16L785.09 277.22C783.17 278.23 780.92 276.6 781.29 274.46L782.4 267.98L777.69 263.39C776.14 261.87 776.99 259.23 779.14 258.92L785.65 257.97L788.56 252.07C789.52 250.12 792.3 250.12 793.26 252.07Z" fill="#FFC004"/>
<path d="M835.4 252.07L838.31 257.97L844.82 258.92C846.97 259.23 847.83 261.87 846.27 263.39L841.56 267.98L842.67 274.46C843.04 276.6 840.79 278.23 838.87 277.22L833.05 274.16L827.23 277.22C825.31 278.23 823.06 276.6 823.43 274.46L824.54 267.98L819.83 263.39C818.28 261.87 819.13 259.23 821.28 258.92L827.79 257.97L830.7 252.07C831.66 250.12 834.44 250.12 835.4 252.07Z" fill="#FFC004"/>
<path d="M877.53 252.07L880.44 257.97L886.95 258.92C889.1 259.23 889.96 261.87 888.4 263.39L883.69 267.98L884.8 274.46C885.17 276.6 882.92 278.23 881 277.22L875.18 274.16L869.36 277.22C867.44 278.23 865.19 276.6 865.56 274.46L866.67 267.98L861.96 263.39C860.41 261.87 861.26 259.23 863.41 258.92L869.92 257.97L872.83 252.07C873.79 250.12 876.57 250.12 877.53 252.07Z" fill="#EAEEFB"/>
<path d="M294.08 222.36H104.33C84.8675 222.36 69.09 238.138 69.09 257.6C69.09 277.063 84.8675 292.84 104.33 292.84H294.08C313.542 292.84 329.32 277.063 329.32 257.6C329.32 238.138 313.542 222.36 294.08 222.36Z" fill="#EAEEFB"/>
<path d="M104.33 279.84C92.07 279.84 82.09 269.86 82.09 257.6C82.09 245.34 92.07 235.36 104.33 235.36H294.08C306.34 235.36 316.32 245.34 316.32 257.6C316.32 269.86 306.34 279.84 294.08 279.84H104.33Z" fill="white"/>
<path d="M117.28 245.61L120.19 251.51L126.7 252.46C128.85 252.77 129.71 255.41 128.15 256.93L123.44 261.52L124.55 268C124.92 270.14 122.67 271.77 120.75 270.76L114.93 267.7L109.11 270.76C107.19 271.77 104.94 270.14 105.31 268L106.42 261.52L101.71 256.93C100.16 255.41 101.01 252.77 103.16 252.46L109.67 251.51L112.58 245.61C113.54 243.66 116.32 243.66 117.28 245.61Z" fill="#FFC004"/>
<path d="M159.41 245.61L162.32 251.51L168.83 252.46C170.98 252.77 171.84 255.41 170.28 256.93L165.57 261.52L166.68 268C167.05 270.14 164.8 271.77 162.88 270.76L157.06 267.7L151.24 270.76C149.32 271.77 147.07 270.14 147.44 268L148.55 261.52L143.84 256.93C142.29 255.41 143.14 252.77 145.29 252.46L151.8 251.51L154.71 245.61C155.67 243.66 158.45 243.66 159.41 245.61Z" fill="#FFC004"/>
<path d="M201.55 245.61L204.46 251.51L210.97 252.46C213.12 252.77 213.98 255.41 212.42 256.93L207.71 261.52L208.82 268C209.19 270.14 206.94 271.77 205.02 270.76L199.2 267.7L193.38 270.76C191.46 271.77 189.21 270.14 189.58 268L190.69 261.52L185.98 256.93C184.43 255.41 185.28 252.77 187.43 252.46L193.94 251.51L196.85 245.61C197.81 243.66 200.59 243.66 201.55 245.61Z" fill="#FFC004"/>
<path d="M243.69 245.61L246.6 251.51L253.11 252.46C255.26 252.77 256.12 255.41 254.56 256.93L249.85 261.52L250.96 268C251.33 270.14 249.08 271.77 247.16 270.76L241.34 267.7L235.52 270.76C233.6 271.77 231.35 270.14 231.72 268L232.83 261.52L228.12 256.93C226.57 255.41 227.42 252.77 229.57 252.46L236.08 251.51L238.99 245.61C239.95 243.66 242.73 243.66 243.69 245.61Z" fill="#FFC004"/>
<path d="M285.82 245.61L288.73 251.51L295.24 252.46C297.39 252.77 298.25 255.41 296.69 256.93L291.98 261.52L293.09 268C293.46 270.14 291.21 271.77 289.29 270.76L283.47 267.7L277.65 270.76C275.73 271.77 273.48 270.14 273.85 268L274.96 261.52L270.25 256.93C268.7 255.41 269.55 252.77 271.7 252.46L278.21 251.51L281.12 245.61C282.08 243.66 284.86 243.66 285.82 245.61Z" fill="#EAEEFB"/>
<path d="M272.96 317.17H83.21C63.7475 317.17 47.97 332.948 47.97 352.41C47.97 371.873 63.7475 387.65 83.21 387.65H272.96C292.422 387.65 308.2 371.873 308.2 352.41C308.2 332.948 292.422 317.17 272.96 317.17Z" fill="#EAEEFB"/>
<path d="M83.21 374.65C70.95 374.65 60.97 364.67 60.97 352.41C60.97 340.15 70.95 330.17 83.21 330.17H272.96C285.22 330.17 295.2 340.15 295.2 352.41C295.2 364.67 285.22 374.65 272.96 374.65H83.21Z" fill="white"/>
<path d="M96.1599 340.42L99.0699 346.32L105.58 347.27C107.73 347.58 108.59 350.22 107.03 351.74L102.32 356.33L103.43 362.81C103.8 364.95 101.55 366.58 99.6299 365.57L93.8099 362.51L87.9899 365.57C86.0699 366.58 83.8199 364.95 84.1899 362.81L85.2999 356.33L80.5899 351.74C79.0399 350.22 79.8899 347.58 82.0399 347.27L88.5499 346.32L91.4599 340.42C92.4199 338.47 95.1999 338.47 96.1599 340.42Z" fill="#FFC004"/>
<path d="M138.3 340.42L141.21 346.32L147.72 347.27C149.87 347.58 150.73 350.22 149.17 351.74L144.46 356.33L145.57 362.81C145.94 364.95 143.69 366.58 141.77 365.57L135.95 362.51L130.13 365.57C128.21 366.58 125.96 364.95 126.33 362.81L127.44 356.33L122.73 351.74C121.18 350.22 122.03 347.58 124.18 347.27L130.69 346.32L133.6 340.42C134.56 338.47 137.34 338.47 138.3 340.42Z" fill="#FFC004"/>
<path d="M180.44 340.42L183.35 346.32L189.86 347.27C192.01 347.58 192.87 350.22 191.31 351.74L186.6 356.33L187.71 362.81C188.08 364.95 185.83 366.58 183.91 365.57L178.09 362.51L172.27 365.57C170.35 366.58 168.1 364.95 168.47 362.81L169.58 356.33L164.87 351.74C163.32 350.22 164.17 347.58 166.32 347.27L172.83 346.32L175.74 340.42C176.7 338.47 179.48 338.47 180.44 340.42Z" fill="#FFC004"/>
<path d="M222.57 340.42L225.48 346.32L231.99 347.27C234.14 347.58 235 350.22 233.44 351.74L228.73 356.33L229.84 362.81C230.21 364.95 227.96 366.58 226.04 365.57L220.22 362.51L214.4 365.57C212.48 366.58 210.23 364.95 210.6 362.81L211.71 356.33L207 351.74C205.45 350.22 206.3 347.58 208.45 347.27L214.96 346.32L217.87 340.42C218.83 338.47 221.61 338.47 222.57 340.42Z" fill="#EAEEFB"/>
<path d="M264.71 340.42L267.62 346.32L274.13 347.27C276.28 347.58 277.14 350.22 275.58 351.74L270.87 356.33L271.98 362.81C272.35 364.95 270.1 366.58 268.18 365.57L262.36 362.51L256.54 365.57C254.62 366.58 252.37 364.95 252.74 362.81L253.85 356.33L249.14 351.74C247.59 350.22 248.44 347.58 250.59 347.27L257.1 346.32L260.01 340.42C260.97 338.47 263.75 338.47 264.71 340.42Z" fill="#EAEEFB"/>
<path d="M595.13 412.11H359.82C348.33 412.11 339.01 402.79 339.01 391.3V70.63C339.01 59.14 348.33 49.82 359.82 49.82H595.13C609.61 50.83 616.61 59.36 615.94 70.63V391.29C615.94 402.78 606.62 412.1 595.13 412.1V412.11Z" fill="#3350B8"/>
<path d="M589.94 75.82H365V386.11H589.94V75.82Z" fill="white"/>
<path d="M534.96 41.05H419.99C414.97 41.05 410.9 45.1197 410.9 50.14V77.72C410.9 82.7403 414.97 86.81 419.99 86.81H534.96C539.98 86.81 544.05 82.7403 544.05 77.72V50.14C544.05 45.1197 539.98 41.05 534.96 41.05Z" fill="#03C7B6"/>
<path d="M477.47 23.59C469.97 23.59 463.89 29.67 463.89 37.17V41.05H491.06V37.17C491.06 29.67 484.98 23.59 477.47 23.59ZM477.47 36.38C475.23 36.38 473.41 34.56 473.41 32.32C473.41 30.08 475.23 28.26 477.47 28.26C479.71 28.26 481.53 30.08 481.53 32.32C481.53 34.56 479.71 36.38 477.47 36.38Z" fill="#03C7B6"/>
<path d="M480.94 168.62C500.215 168.62 515.84 152.995 515.84 133.72C515.84 114.445 500.215 98.82 480.94 98.82C461.665 98.82 446.04 114.445 446.04 133.72C446.04 152.995 461.665 168.62 480.94 168.62Z" fill="#EAEEFB"/>
<path d="M471.23 167.25C469.12 166.64 467.08 165.83 465.16 164.86C465.1 164.82 465.04 164.79 464.97 164.76C464.91 164.73 464.84 164.69 464.78 164.66C463.89 164.2 463.02 163.69 462.17 163.15C463.02 161.52 463.89 160.2 464.76 159.36C464.76 159.36 471.46 161.43 471.23 167.26V167.25Z" fill="#3350B8"/>
<path d="M499.71 163.14C498.91 163.65 498.08 164.14 497.23 164.59C497.17 164.62 497.1 164.66 497.04 164.69C496.97 164.72 496.9 164.76 496.84 164.79C494.87 165.8 492.8 166.62 490.65 167.24C490.42 161.41 497.12 159.34 497.12 159.34C497.99 160.18 498.86 161.5 499.71 163.13V163.14Z" fill="#3350B8"/>
<path d="M497.12 159.36L497.1 160.69L497.04 164.7C496.97 164.73 496.9 164.77 496.84 164.8C494.87 165.81 492.8 166.63 490.65 167.25C487.64 168.12 484.46 168.6 481.16 168.62H480.79C477.47 168.6 474.26 168.13 471.23 167.25C469.12 166.64 467.08 165.83 465.16 164.86C465.1 164.82 465.04 164.79 464.97 164.76L464.8 160.27L464.77 159.35C467.68 156.38 473.67 151.2 480.76 151.2C488.28 151.2 497.12 159.35 497.12 159.35V159.36Z" fill="#3350B8"/>
<path d="M497.28 160.87L497.23 164.59C497.17 164.62 497.1 164.66 497.04 164.69C496.97 164.72 496.9 164.76 496.84 164.79L496.9 160.86C496.9 160.76 496.99 160.67 497.09 160.67C497.19 160.67 497.27 160.76 497.27 160.86L497.28 160.87Z" fill="#312356"/>
<path d="M465.16 164.86C465.1 164.82 465.04 164.79 464.97 164.76C464.91 164.73 464.84 164.69 464.78 164.66L464.63 160.47C464.63 160.37 464.71 160.28 464.8 160.27C464.9 160.27 465 160.35 465 160.45L465.16 164.86Z" fill="#312356"/>
<path d="M482.41 163.79C482.41 164.42 481.9 164.93 481.27 164.93C480.64 164.93 480.13 164.42 480.13 163.79C480.13 163.16 480.64 162.65 481.27 162.65C481.9 162.65 482.41 163.16 482.41 163.79Z" fill="#312356"/>
<path d="M481.77 148.52C477.37 148.52 475 152.37 475.09 155.85C475.18 159.32 477.62 160.46 477.62 160.46L481.51 156.89L485.38 160.46C485.38 160.46 487.69 158.82 487.53 155.15C487.37 151.48 484.46 148.52 481.76 148.52H481.77Z" fill="white"/>
<path d="M481.77 148.52V148.38C479.57 148.38 477.86 149.33 476.71 150.71C475.56 152.09 474.96 153.9 474.96 155.65C474.96 155.72 474.96 155.79 474.96 155.86C475.01 157.63 475.65 158.82 476.29 159.56C476.93 160.3 477.55 160.59 477.56 160.6C477.61 160.62 477.67 160.61 477.71 160.58L481.51 157.1L485.29 160.58C485.29 160.58 485.41 160.63 485.46 160.59C485.46 160.59 486.02 160.19 486.57 159.36C487.12 158.53 487.67 157.26 487.67 155.53C487.67 155.41 487.67 155.29 487.67 155.17C487.59 153.3 486.81 151.61 485.7 150.39C484.59 149.17 483.16 148.4 481.76 148.4V148.68C483.06 148.68 484.43 149.4 485.49 150.58C486.56 151.76 487.31 153.39 487.39 155.18C487.39 155.3 487.39 155.42 487.39 155.53C487.39 157.21 486.86 158.42 486.33 159.21C486.07 159.61 485.8 159.9 485.61 160.09C485.51 160.19 485.43 160.26 485.37 160.3L485.31 160.35L485.29 160.37L485.37 160.48L485.46 160.38L481.59 156.81C481.54 156.76 481.45 156.76 481.4 156.81L477.51 160.38L477.6 160.48L477.66 160.35H477.64C477.52 160.28 476.93 159.95 476.37 159.25C475.81 158.54 475.26 157.46 475.22 155.86C475.22 155.79 475.22 155.73 475.22 155.66C475.22 153.98 475.8 152.23 476.91 150.9C478.02 149.57 479.64 148.67 481.76 148.67V148.53L481.77 148.52Z" fill="#E0E0E0"/>
<path d="M481.16 168.62H480.79C480.77 168.32 480.76 168.07 480.76 167.87C480.74 167.48 480.73 167.26 480.73 167.26C480.73 167.16 480.81 167.07 480.91 167.06C481.01 167.06 481.1 167.14 481.11 167.24C481.11 167.24 481.14 167.74 481.16 168.62Z" fill="#312356"/>
<path d="M470.52 130.15C470.52 130.15 464.79 129.01 464.17 124.32C463.55 119.63 466.21 118.54 466.21 118.54C466.21 118.54 462.28 112.43 469.05 106.93C475.83 101.43 483.07 104.37 485.11 108.54C485.11 108.54 487.83 104.56 493.27 107.73C498.71 110.9 495.72 115.17 495.72 115.17C495.72 115.17 498.14 115.12 498.66 117.63C499.18 120.14 497.57 120.85 497.57 120.85C497.57 120.85 500.22 123.5 497.33 127.34C494.44 131.18 488.99 128.28 488.99 128.28L470.51 130.13L470.52 130.15Z" fill="#312356"/>
<path d="M485.29 108.57C485.3 108.47 485.46 107.55 486.21 106.66C486.96 105.77 488.28 104.91 490.7 104.9C490.98 104.9 491.27 104.91 491.58 104.94C491.68 104.94 491.77 104.87 491.78 104.77C491.78 104.67 491.71 104.58 491.61 104.57C491.29 104.54 490.99 104.53 490.7 104.53C488.11 104.53 486.64 105.51 485.85 106.51C485.06 107.51 484.92 108.5 484.92 108.51C484.91 108.61 484.98 108.7 485.08 108.72C485.18 108.73 485.27 108.66 485.29 108.56V108.57Z" fill="#312356"/>
<path d="M495.31 128.25C495.31 128.25 496.44 128.15 497.62 127.57C498.21 127.28 498.81 126.86 499.29 126.27C499.77 125.68 500.13 124.9 500.21 123.92C500.21 123.82 500.14 123.73 500.04 123.72C499.94 123.72 499.85 123.79 499.84 123.89C499.76 124.8 499.44 125.5 499 126.04C498.34 126.85 497.41 127.32 496.64 127.58C496.25 127.71 495.91 127.79 495.66 127.83C495.54 127.85 495.44 127.87 495.37 127.88C495.34 127.88 495.31 127.88 495.29 127.88H495.27C495.17 127.89 495.09 127.98 495.1 128.08C495.1 128.18 495.2 128.26 495.3 128.25H495.31Z" fill="#312356"/>
<path d="M467.05 128.01H467.01C466.8 127.94 465.8 127.66 464.87 126.98C463.94 126.3 463.08 125.26 463.08 123.65C463.08 123.57 463.08 123.49 463.08 123.4C463.08 123.3 463.01 123.21 462.9 123.2C462.8 123.2 462.71 123.27 462.7 123.38C462.7 123.47 462.7 123.56 462.7 123.65C462.7 124.58 462.97 125.35 463.37 125.97C463.98 126.9 464.87 127.49 465.61 127.86C466.35 128.22 466.94 128.36 466.95 128.36C467.05 128.38 467.15 128.32 467.17 128.22C467.19 128.12 467.13 128.02 467.03 128L467.05 128.01Z" fill="#312356"/>
<path d="M470.77 131.02C470.77 131.02 469.66 127.51 466.76 128.46C463.85 129.41 465.43 136.61 472 135.22L470.77 131.02Z" fill="#6277D1"/>
<path d="M492.12 131.02C492.12 131.02 493.23 127.51 496.13 128.46C499.04 129.41 497.46 136.61 490.89 135.22L492.12 131.02Z" fill="#6277D1"/>
<path d="M492.69 121.36V131.14C492.69 134.08 491.08 136.79 488.49 138.19C487.19 138.89 486.14 139.92 485.42 141.14C484.7 142.36 484.29 143.77 484.29 145.24V146.51C484.29 147.99 484.51 149.46 484.95 150.88L485.05 151.21C485.05 151.21 484.61 153.99 481.45 154.94C478.29 153.99 477.85 151.21 477.85 151.21L477.95 150.88C478.38 149.47 478.61 147.99 478.61 146.51V145.24C478.61 142.3 477 139.59 474.41 138.19C473.11 137.49 472.07 136.46 471.34 135.24C470.61 134.02 470.21 132.61 470.21 131.14V122.9C470.21 122.9 470.42 122.93 470.71 122.9C471.48 122.82 472.82 122.32 472.38 119.71C472.38 119.71 474.47 120.66 476.11 119.71C477.68 118.8 477.37 116.42 477.34 116.22C477.41 116.46 478.42 119.6 482.68 119.56C487.1 119.52 488.65 117.44 488.65 117.44C488.65 117.44 489.25 121.07 492.7 121.36H492.69Z" fill="#6277D1"/>
<path d="M475.57 128.25C475.69 129.39 476.68 130.22 477.78 130.1C478.88 129.98 479.68 128.97 479.56 127.83C479.44 126.69 478.45 125.86 477.35 125.98C476.25 126.1 475.45 127.11 475.57 128.25Z" fill="white"/>
<path d="M476.26 128.4C476.34 129.15 476.99 129.69 477.71 129.61C478.43 129.53 478.95 128.87 478.87 128.12C478.79 127.37 478.14 126.83 477.42 126.91C476.7 126.99 476.18 127.65 476.26 128.4Z" fill="#312356"/>
<path d="M475.07 124.6C475.07 124.6 475.31 124.2 475.78 123.8C476.25 123.4 476.96 123 477.92 123C478.29 123 478.7 123.06 479.13 123.2C479.23 123.23 479.28 123.34 479.25 123.43C479.22 123.53 479.11 123.58 479.02 123.55C478.62 123.42 478.25 123.37 477.92 123.37C477.07 123.37 476.45 123.72 476.02 124.08C475.81 124.26 475.65 124.44 475.55 124.57C475.5 124.64 475.46 124.69 475.43 124.73L475.4 124.77C475.35 124.87 475.23 124.9 475.15 124.85C475.06 124.8 475.03 124.68 475.08 124.6H475.07Z" fill="#312356"/>
<path d="M485.08 127.8C485.2 128.94 486.19 129.77 487.29 129.65C488.39 129.53 489.19 128.52 489.07 127.38C488.95 126.24 487.96 125.41 486.86 125.53C485.76 125.65 484.96 126.66 485.08 127.8Z" fill="white"/>
<path d="M485.77 127.95C485.85 128.7 486.5 129.24 487.22 129.16C487.94 129.08 488.46 128.42 488.38 127.67C488.3 126.92 487.65 126.38 486.93 126.46C486.21 126.54 485.69 127.2 485.77 127.95Z" fill="#312356"/>
<path d="M484.87 122.81C484.87 122.81 485.41 122.58 486.15 122.58C486.98 122.58 488.1 122.88 488.97 124.1C489.03 124.18 489.01 124.3 488.93 124.36C488.85 124.42 488.73 124.4 488.67 124.32C487.87 123.2 486.91 122.95 486.16 122.95C485.83 122.95 485.54 123 485.34 123.05C485.24 123.08 485.16 123.1 485.11 123.12L485.05 123.14H485.04C484.95 123.18 484.84 123.14 484.8 123.04C484.76 122.95 484.8 122.84 484.9 122.8L484.87 122.81Z" fill="#312356"/>
<path d="M482.86 126.55C483.27 127.22 483.42 129.9 483.42 129.9C483.42 129.9 485.38 129.73 485.05 131.22C484.72 132.71 481.37 132.54 481.19 130.86C481.01 129.18 481.69 124.66 482.86 126.55Z" fill="#FF4B55"/>
<path d="M486.91 133.9C486.91 133.9 486.76 134.18 486.52 134.39C486.28 134.6 485.95 134.8 485.5 134.8C485.23 134.8 484.9 134.73 484.52 134.53C484.43 134.48 484.32 134.52 484.27 134.61C484.22 134.7 484.26 134.81 484.35 134.86C484.78 135.08 485.16 135.17 485.5 135.17C486.1 135.17 486.55 134.89 486.83 134.62C487.11 134.35 487.25 134.08 487.25 134.07C487.3 133.98 487.25 133.87 487.17 133.82C487.08 133.77 486.97 133.82 486.92 133.9H486.91Z" fill="#312356"/>
<path d="M480.94 168.62C500.215 168.62 515.84 152.995 515.84 133.72C515.84 114.445 500.215 98.82 480.94 98.82C461.665 98.82 446.04 114.445 446.04 133.72C446.04 152.995 461.665 168.62 480.94 168.62Z" stroke="#EAEEFB" stroke-width="5" stroke-linecap="round" stroke-linejoin="round"/>
<path d="M522.39 179.49H432.55C429.855 179.49 427.67 181.675 427.67 184.37C427.67 187.065 429.855 189.25 432.55 189.25H522.39C525.085 189.25 527.27 187.065 527.27 184.37C527.27 181.675 525.085 179.49 522.39 179.49Z" fill="#6277D1"/>
<path d="M503.34 194.74H451.59C448.895 194.74 446.71 196.925 446.71 199.62C446.71 202.315 448.895 204.5 451.59 204.5H503.34C506.035 204.5 508.22 202.315 508.22 199.62C508.22 196.925 506.035 194.74 503.34 194.74Z" fill="#6277D1"/>
<path d="M462.03 218.23H394.61C391.948 218.23 389.79 220.388 389.79 223.05C389.79 225.712 391.948 227.87 394.61 227.87H462.03C464.692 227.87 466.85 225.712 466.85 223.05C466.85 220.388 464.692 218.23 462.03 218.23Z" fill="#03C7B6"/>
<path d="M411.21 238.91H559.73" stroke="#EAEEFB" stroke-width="2" stroke-linecap="round" stroke-linejoin="round"/>
<path d="M542.85 249.43H559.73" stroke="#EAEEFB" stroke-width="2" stroke-linecap="round" stroke-linejoin="round"/>
<path d="M411.21 249.43H527.27" stroke="#EAEEFB" stroke-width="2" stroke-linecap="round" stroke-linejoin="round"/>
<path d="M462.03 259.97H394.61C391.948 259.97 389.79 262.128 389.79 264.79C389.79 267.452 391.948 269.61 394.61 269.61H462.03C464.692 269.61 466.85 267.452 466.85 264.79C466.85 262.128 464.692 259.97 462.03 259.97Z" fill="#03C7B6"/>
<path d="M411.21 280.65H559.73" stroke="#EAEEFB" stroke-width="2" stroke-linecap="round" stroke-linejoin="round"/>
<path d="M542.85 291.17H559.73" stroke="#EAEEFB" stroke-width="2" stroke-linecap="round" stroke-linejoin="round"/>
<path d="M411.21 291.17H527.27" stroke="#EAEEFB" stroke-width="2" stroke-linecap="round" stroke-linejoin="round"/>
<path d="M462.03 301.71H394.61C391.948 301.71 389.79 303.868 389.79 306.53C389.79 309.192 391.948 311.35 394.61 311.35H462.03C464.692 311.35 466.85 309.192 466.85 306.53C466.85 303.868 464.692 301.71 462.03 301.71Z" fill="#03C7B6"/>
<path d="M411.21 322.39H559.73" stroke="#EAEEFB" stroke-width="2" stroke-linecap="round" stroke-linejoin="round"/>
<path d="M542.85 332.91H559.73" stroke="#EAEEFB" stroke-width="2" stroke-linecap="round" stroke-linejoin="round"/>
<path d="M411.21 332.91H527.27" stroke="#EAEEFB" stroke-width="2" stroke-linecap="round" stroke-linejoin="round"/>
<path d="M462.03 343.45H394.61C391.948 343.45 389.79 345.608 389.79 348.27C389.79 350.932 391.948 353.09 394.61 353.09H462.03C464.692 353.09 466.85 350.932 466.85 348.27C466.85 345.608 464.692 343.45 462.03 343.45Z" fill="#03C7B6"/>
<path d="M411.21 364.13H559.73" stroke="#EAEEFB" stroke-width="2" stroke-linecap="round" stroke-linejoin="round"/>
<path d="M542.85 374.65H559.73" stroke="#EAEEFB" stroke-width="2" stroke-linecap="round" stroke-linejoin="round"/>
<path d="M411.21 374.65H527.27" stroke="#EAEEFB" stroke-width="2" stroke-linecap="round" stroke-linejoin="round"/>
<path d="M188.04 150.2L194.39 163.07L208.6 165.13C213.29 165.81 215.16 171.58 211.77 174.88L201.49 184.9L203.92 199.05C204.72 203.72 199.82 207.28 195.62 205.08L182.91 198.4L170.2 205.08C166 207.29 161.1 203.72 161.9 199.05L164.33 184.9L154.05 174.88C150.66 171.57 152.53 165.81 157.22 165.13L171.43 163.07L177.78 150.2C179.88 145.95 185.94 145.95 188.04 150.2Z" fill="#FFC004"/>
<path d="M240.56 130.42L244.26 137.91L252.52 139.11C255.25 139.51 256.34 142.86 254.36 144.78L248.38 150.61L249.79 158.84C250.26 161.56 247.4 163.63 244.96 162.35L237.57 158.46L230.18 162.35C227.74 163.63 224.89 161.56 225.35 158.84L226.76 150.61L220.78 144.78C218.81 142.86 219.9 139.5 222.62 139.11L230.88 137.91L234.58 130.42C235.8 127.95 239.33 127.95 240.55 130.42H240.56Z" fill="#FFC004"/>
<path d="M399.57 96.33H305.68C296.54 96.33 289.13 103.74 289.13 112.88V184.15C289.13 193.29 296.54 200.7 305.68 200.7H399.57C408.71 200.7 416.12 193.29 416.12 184.15V112.88C416.12 103.74 408.71 96.33 399.57 96.33Z" fill="#FFC004"/>
<path d="M335.19 140.31H323.94C322.753 140.31 321.79 141.273 321.79 142.46V172.89C321.79 174.077 322.753 175.04 323.94 175.04H335.19C336.377 175.04 337.34 174.077 337.34 172.89V142.46C337.34 141.273 336.377 140.31 335.19 140.31Z" stroke="white" stroke-width="5" stroke-linecap="round" stroke-linejoin="round"/>
<path d="M383.46 152.63V153.18C383.46 155.66 381.45 157.68 378.96 157.68H376.15C378.63 157.68 380.65 159.69 380.65 162.18V162.94C380.65 165.42 378.64 167.44 376.15 167.44H372.34C374.82 167.44 376.84 169.45 376.84 171.94C376.84 173.18 376.33 174.31 375.52 175.12C374.71 175.93 373.58 176.44 372.34 176.44H344.43L337.33 172.49V143.3L339.9 139.63C342.04 136.57 344.49 133.74 347.23 131.19L349.74 128.84C350.28 128.34 350.64 127.69 350.78 126.97L352.8 116.98C353.13 115.35 354.56 114.18 356.22 114.18C356.95 114.18 357.65 114.41 358.22 114.81C358.79 115.21 359.25 115.78 359.5 116.47L360.08 118.06C361.42 121.69 361.69 125.62 360.88 129.41L358.82 138.99H375.49C377.97 138.99 379.99 141.01 379.99 143.49V143.63C379.99 146.11 377.98 148.13 375.49 148.13H378.96C381.44 148.13 383.46 150.15 383.46 152.63V152.63Z" stroke="white" stroke-width="5" stroke-linecap="round" stroke-linejoin="round"/>
<path d="M653.31 296.09H559.42C550.28 296.09 542.87 303.5 542.87 312.64V383.91C542.87 393.05 550.28 400.46 559.42 400.46H653.31C662.45 400.46 669.86 393.05 669.86 383.91V312.64C669.86 303.5 662.45 296.09 653.31 296.09Z" fill="#FF2923"/>
<path d="M639.45 346.47H639.46C639.46 346.47 631.98 365.65 606.36 374.79C580.73 365.64 573.26 346.46 573.26 346.46H573.27C572.21 344.23 571.63 341.74 571.63 339.11C571.63 329.52 579.4 321.75 588.99 321.75C598.58 321.75 606.35 329.52 606.35 339.11C606.35 329.52 614.12 321.75 623.71 321.75C633.3 321.75 641.07 329.52 641.07 339.11C641.07 341.74 640.48 344.23 639.43 346.47H639.45Z" stroke="white" stroke-width="5" stroke-linecap="round" stroke-linejoin="round"/>
</g>
<defs>
<linearGradient id="paint0_linear_134_6188" x1="480.5" y1="-23" x2="480.5" y2="467" gradientUnits="userSpaceOnUse">
<stop stop-color="#BFC6F1"/>
<stop offset="1" stop-color="#BFC6F1" stop-opacity="0"/>
</linearGradient>
<clipPath id="clip0_134_6188">
<rect width="969" height="456" fill="white"/>
</clipPath>
</defs>
</svg>
